<?xml version="1.0" encoding="UTF-8"?><!DOCTYPE svg PUBLIC "-//W3C//DTD SVG 1.1//EN" "http://www.w3.org/Graphics/SVG/1.1/DTD/svg11.dtd"><!-- Creator: CorelDRAW 2019 (64-Bit) --><svg xmlns="http://www.w3.org/2000/svg" xml:space="preserve" width="105mm" height="16mm" version="1.1" style="shape-rendering:geometricPrecision; text-rendering:geometricPrecision; image-rendering:optimizeQuality; fill-rule:evenodd; clip-rule:evenodd"viewBox="0 0 10500 1600" xmlns:xlink="http://www.w3.org/1999/xlink" xmlns:xodm="http://www.corel.com/coreldraw/odm/2003"> <defs>  <style type="text/css">   <![CDATA[    .fil0 {fill:#606062;fill-rule:nonzero}   ]]>  </style> </defs> <g id="Layer_x0020_1">  <metadata id="CorelCorpID_0Corel-Layer"/>  <path class="fil0" d="M482.37 1575.91l0 -528.63c0,-243.47 -2.19,-438.69 -13.16,-629.52l6.58 -2.2c72.38,166.71 171.09,348.77 265.41,508.89l386.05 651.46 278.57 0 0 -1478.4 -250.06 0 0 515.47c0,225.92 6.58,416.76 24.13,614.17l-4.38 0c-68,-160.13 -153.55,-331.22 -252.25,-495.73l-381.67 -633.91 -307.08 0 0 1478.4 247.86 0zm2129.86 -458.44c4.39,-24.12 8.78,-63.61 8.78,-114.06 0,-234.7 -111.87,-519.85 -460.63,-519.85 -342.18,0 -522.05,278.57 -522.05,574.69 0,326.83 203.99,541.79 550.56,541.79 153.55,0 280.77,-30.71 372.89,-68l-39.48 -186.44c-81.16,30.7 -171.09,48.25 -296.12,48.25 -171.09,0 -322.44,-83.35 -329.02,-276.38l715.07 0zm-715.07 -188.63c10.97,-109.68 81.16,-261.03 247.86,-261.03 179.87,0 223.74,162.32 221.54,261.03l-469.4 0zm820.36 -421.15l315.86 1068.22 252.25 0 135.99 -434.31c30.71,-105.28 59.23,-210.57 81.16,-342.18l4.39 0c24.13,129.42 48.25,230.32 81.16,342.18l127.22 434.31 250.05 0 335.6 -1068.22 -265.41 0 -118.44 473.79c-28.52,125.03 -52.65,241.28 -70.19,357.54l-4.39 0c-24.13,-116.26 -52.64,-232.51 -85.55,-357.54l-133.8 -473.79 -219.35 0 -138.18 486.95c-30.71,109.67 -65.81,228.12 -87.74,344.38l-4.39 0c-19.74,-116.26 -43.87,-232.51 -68,-346.57l-111.86 -484.76 -276.38 0zm1664.84 1015.58c78.97,43.87 195.22,76.77 324.64,76.77 282.96,0 434.31,-142.58 434.31,-335.6 -2.2,-157.93 -92.13,-256.64 -285.16,-326.83 -135.99,-48.26 -186.44,-81.16 -186.44,-149.16 0,-65.8 52.64,-111.86 149.16,-111.86 94.31,0 179.86,35.09 225.92,61.41l52.65 -190.83c-61.42,-32.9 -164.51,-63.61 -282.96,-63.61 -247.86,0 -403.6,146.96 -403.6,335.6 -2.19,125.03 85.55,239.09 293.93,311.48 131.6,46.06 175.47,83.35 175.47,155.73 0,70.19 -52.64,118.45 -171.09,118.45 -96.51,0 -212.76,-39.48 -274.18,-76.77l-52.65 195.22zm980.49 52.64l271.99 0 0 -1559.56 -271.99 0 0 1559.56zm1469.62 -458.44c4.39,-24.12 8.78,-63.61 8.78,-114.06 0,-234.7 -111.87,-519.85 -460.63,-519.85 -342.18,0 -522.05,278.57 -522.05,574.69 0,326.83 203.99,541.79 550.56,541.79 153.55,0 280.77,-30.71 372.89,-68l-39.48 -186.44c-81.16,30.7 -171.09,48.25 -296.12,48.25 -171.09,0 -322.44,-83.35 -329.02,-276.38l715.07 0zm-715.07 -188.63c10.97,-109.68 81.16,-261.03 247.86,-261.03 179.87,0 223.74,162.32 221.54,261.03l-469.4 0zm987.06 -618.56l0 197.41 -153.54 0 0 201.8 153.54 0 0 502.3c0,140.39 26.32,236.9 83.35,298.32 50.45,54.83 133.81,89.93 232.51,89.93 85.55,0 155.74,-13.16 195.22,-28.52l-4.39 -206.18c-30.71,8.77 -54.83,13.16 -105.28,13.16 -103.1,0 -138.19,-68 -138.19,-197.41l0 -471.6 256.63 0 0 -201.8 -256.63 0 0 -274.18 -263.22 76.77zm769.91 0l0 197.41 -153.54 0 0 201.8 153.54 0 0 502.3c0,140.39 26.32,236.9 83.35,298.32 50.45,54.83 133.81,89.93 232.51,89.93 85.55,0 155.74,-13.16 195.22,-28.52l-4.39 -206.18c-30.71,8.77 -54.83,13.16 -105.28,13.16 -103.1,0 -138.19,-68 -138.19,-197.41l0 -471.6 256.63 0 0 -201.8 -256.63 0 0 -274.18 -263.22 76.77zm1616.59 807.19c4.39,-24.12 8.78,-63.61 8.78,-114.06 0,-234.7 -111.87,-519.85 -460.63,-519.85 -342.18,0 -522.05,278.57 -522.05,574.69 0,326.83 203.99,541.79 550.56,541.79 153.55,0 280.77,-30.71 372.89,-68l-39.48 -186.44c-81.16,30.7 -171.09,48.25 -296.12,48.25 -171.09,0 -322.44,-83.35 -329.02,-276.38l715.07 0zm-715.07 -188.63c10.97,-109.68 81.16,-261.03 247.86,-261.03 179.87,0 223.74,162.32 221.54,261.03l-469.4 0zm941 647.07l269.8 0 0 -552.75c0,-30.71 4.38,-59.23 8.77,-83.36 24.13,-120.64 111.87,-203.99 241.28,-203.99 32.9,0 57.03,4.39 78.97,8.77l0 -254.44c-21.94,-4.38 -37.29,-6.58 -63.61,-6.58 -114.06,0 -239.09,76.77 -291.74,228.12l-8.77 0 -8.77 -203.99 -234.7 0c6.58,96.51 8.77,199.61 8.77,344.37l0 723.85z"/> </g></svg>